<svg xmlns="http://www.w3.org/2000/svg" version="1.1" xmlns:xlink="http://www.w3.org/1999/xlink" xmlns:svgjs="http://svgjs.com/svgjs" width="600" height="600" preserveAspectRatio="none" viewBox="0 0 600 600"><g mask="url(&quot;#SvgjsMask7182&quot;)" fill="none"><rect width="600" height="600" x="0" y="0" fill="rgba(236, 229, 221, 1)"></rect><use xlink:href="#SvgjsG7193" transform="translate(0, 0)" fill="rgba(233, 225, 214, 1)"></use><use xlink:href="#SvgjsG7193" transform="translate(0, 345)" fill="rgba(233, 225, 214, 1)"></use><use xlink:href="#SvgjsG7193" transform="translate(345, 0)" fill="rgba(233, 225, 214, 1)"></use><use xlink:href="#SvgjsG7193" transform="translate(345, 345)" fill="rgba(233, 225, 214, 1)"></use></g><defs><mask id="SvgjsMask7182"><rect width="600" height="600" fill="#ffffff"></rect></mask><g id="SvgjsG7186"><path d="M2.5 13.09C-0.5 10.08-0.5 5.19 2.51 2.18 5.52-0.83 10.41-0.83 13.42 2.18S16.43 10.08 13.42 13.09c-3.01 3.01-7.91 3.01-10.92 0z m1.35-1.35c2.26 2.26 5.95 2.27 8.22 0 2.26-2.26 2.26-5.95 0-8.21-2.26-2.26-5.95-2.26-8.21 0-2.27 2.27-2.27 5.95-0.01 8.21z"></path><path d="M7.27 8.38a0.57 0.57 0 0 1-0.36-0.42 0.58 0.58 0 0 1 0.1-0.46L10.17 4.32a0.58 0.58 0 0 1 0.82 0.82l-2.46 2.46 3.1 1.11a0.58 0.58 0 0 1 0.35 0.74c-0.11 0.3-0.44 0.46-0.74 0.36l-3.97-1.43z"></path></g><g id="SvgjsG7187"><path d="M10.65 10.99a46.75 46.75 0 0 1-0.08-0.66c-0.02-0.19-0.04-0.37-0.07-0.55-0.14-1.11-0.34-2.2-0.99-2.99A2.81 2.81 0 0 0 9.33 6.6c-0.06-0.06-0.13-0.11-0.19-0.17-0.79-0.66-1.88-0.87-2.99-1l0.01 0.12c0.02 0.14 0.03 0.27 0.05 0.4C7.31 6.09 8.31 6.3 8.97 6.96c0.66 0.66 0.87 1.66 1.01 2.76a35.1 35.1 0 0 1 0.08 0.67c0.02 0.18 0.04 0.36 0.06 0.54C10.27 12.14 10.5 13.33 11.29 14.12c0.31 0.31 0.68 0.53 1.09 0.7l0.39-0.4c-0.43-0.15-0.81-0.36-1.12-0.66-0.66-0.66-0.87-1.67-1-2.77z"></path><path d="M10.88 10.17c0 0.04 0.01 0.07 0.02 0.11 0.02 0.14 0.03 0.27 0.05 0.41 0.4 0.05 0.79 0.11 1.14 0.2l-0.97 0.97c0.04 0.2 0.09 0.39 0.15 0.57L12.65 11.06c0.33 0.12 0.62 0.27 0.88 0.48l-1.8 1.79c0.05 0.06 0.1 0.12 0.16 0.18 0.06 0.06 0.14 0.12 0.2 0.18L13.89 11.9c0.21 0.27 0.37 0.58 0.49 0.91L14.77 12.42C14.61 12.02 14.39 11.65 14.08 11.35c-0.8-0.8-1.99-1.03-3.2-1.18z m-5.89-4.36c0-0.04-0.01-0.09-0.01-0.13-0.01-0.13-0.03-0.26-0.05-0.39-1.1-0.14-2.1-0.35-2.76-1.01C1.87 3.98 1.67 3.59 1.53 3.16l-0.4 0.4C1.29 3.96 1.51 4.33 1.81 4.64c0.79 0.79 1.98 1.02 3.18 1.17z"></path><path d="M2.24 3.84c0.05 0.07 0.11 0.13 0.17 0.2 0.06 0.06 0.13 0.12 0.19 0.16L4.4 2.41c0.21 0.26 0.36 0.56 0.48 0.88-0.01 0.01-0.02 0.01-0.03 0.02l-1.35 1.35a5.82 5.82 0 0 0 0.58 0.15L5.04 3.84c0.13 0.56 0.2 1.17 0.28 1.8C5.47 7.03 5.63 8.46 6.55 9.38c0.79 0.79 1.98 1.02 3.18 1.17l-0.02-0.13c-0.01-0.13-0.03-0.26-0.04-0.39-0.39-0.05-0.77-0.11-1.13-0.2L9.5 8.88A5.82 5.82 0 0 0 9.35 8.3l-1.34 1.34c-0.01 0.01-0.01 0.02-0.02 0.03-0.33-0.12-0.63-0.27-0.88-0.48L8.9 7.4a1.97 1.97 0 0 0-0.17-0.21c-0.06-0.06-0.12-0.11-0.19-0.16l-1.8 1.8c-0.21-0.26-0.36-0.56-0.48-0.88 0.01-0.01 0.02-0.01 0.03-0.03L7.64 6.58a5.63 5.63 0 0 0-0.58-0.15l-0.96 0.97c-0.14-0.56-0.21-1.18-0.28-1.81C5.67 4.2 5.51 2.77 4.59 1.86c-0.31-0.31-0.66-0.53-1.06-0.71l-0.39 0.39c0.33 0.13 0.63 0.29 0.9 0.51L2.24 3.84z"></path></g><g id="SvgjsG7190"><path d="M3.68 4.58L1.9 2.8 2.84 1.86l1.78 1.78-0.94 0.94zM7.35 2.51L7.35 0l1.32 0 0 2.51-1.32 0z m-4.82 4.82l0 1.32-2.51 0 0-1.32 2.51 0z m9.81-2.75l-0.94-0.94L13.18 1.86l0.94 0.94-1.78 1.78z m-8.68 6.8l0.94 0.94-1.77 1.78-0.95-0.94 1.78-1.78zM13.49 8.65l-0.01-1.34 2.52 0.02 0 1.32-2.51 0z m-4.8 4.8l-0.02 2.53-1.32 0 0-2.51 1.34-0.02z m5.45-0.29l-0.94 0.94-1.78-1.78L12.36 11.38l1.78 1.78z"></path><path d="M4.97 4.95a4.18 4.18 0 1 0 5.92 5.92 4.18 4.18 0 1 0-5.92-5.92"></path></g><g id="SvgjsG7192"><path d="M14.51 6.52l1.02 1.03a0.35 0.35 0 0 1-0.49 0.49l-1.02-1.01c-0.07-0.07-0.15-0.11-0.25-0.11-0.15 0-0.28 0.09-0.33 0.23-0.04 0.12-0.08 0.25-0.09 0.38l0.59 0.58c0.04 0.05 0.08 0.11 0.09 0.17l0.64 2.11c0.04 0.18 0 0.39-0.15 0.53a0.57 0.57 0 0 1-0.8 0l-0.9-0.89L8.67 11.77l-1.54 0-2.82 2.82c-0.28 0.28-0.75 0.28-1.03 0s-0.28-0.75 0-1.03L6.31 10.52 4.23 8.44l-1.18 0.25-0.85 3.15c-0.11 0.39-0.51 0.62-0.91 0.51-0.39-0.11-0.62-0.51-0.51-0.91L1.63 8.24l0.9-0.9-1.38 0.2-1.91 1.91c-0.29 0.29-0.75 0.28-1.03 0a0.73 0.73 0 0 1 0-1.04L0.23 6.39l1.25-0.29 0.91-0.91L1.43 5.4a0.08 0.08 0 0 1-0.09-0.02 0.08 0.08 0 0 1 0-0.11l2.04-2.04c0.42-0.38 1.09-0.38 1.49 0.02l5.1 5.1 2.05-0.43 0-1.35a0.14 0.14 0 0 1 0.04-0.11c0.06-0.06 0.15-0.06 0.21 0l0.48 0.49a2.74 2.74 0 0 1 0.65-1.03C14.46 4.86 16.18 4.86 17.24 5.93c0.14 0.14 0.14 0.36 0 0.49-0.14 0.14-0.36 0.14-0.5 0.01-0.73-0.73-1.87-0.78-2.66-0.16 0.16 0.04 0.3 0.13 0.43 0.25z"></path></g><g id="SvgjsG7188"><path d="M2.17 4.55L1.94 3.34s3.91 2.11 5.75 3.96c1.27 1.27 2.72 2.01 3.04 0.85 0.31-1.16 2.37-3.22 3.96-1.43 0 0 1.16 1.16 0.16 2.38 0 0-0.5 0.32 0.71 2.16 0 0 0.1 0.42-0.58 0.16 0 0-2.16-2.48-2.54-1.69 0 0-0.56 0.45-0.08 1.53 0.82 1.85-2.11 7.45-7.26 1.48 0 0-2.08-2.27-2.82-5.01 0 0-1.08-2.9-1.66-3.91l1.55 0.74z" fill-rule="evenodd"></path></g><g id="SvgjsG7184"><path d="M15.79 8.54L12.83 11.5c-0.73 0.73-1.61 1.18-2.56 1.36a2.16 2.16 0 0 1-0.14 0.57A1.58 1.58 0 0 1 8.72 14.44L5.64 14.49c-0.06 0.01-0.13 0-0.19-0.02a0.35 0.35 0 0 1-0.2-0.46 0.35 0.35 0 0 1 0.15-0.18l1.92-1.28a5.02 5.02 0 0 1-1.52-1.05l-3.4-3.4c0.29 1.53-0.92 2.74-0.94 2.76-0.09 0.08-0.16 0.13-0.27 0.18-0.13 0.06-0.3 0.11-0.4-0.08l-0.44-3.7C0.08 5.64 0.39 3.7 1.95 2.95c1.06-0.51 2.18-0.06 3.08 0.57l5.17 3.44L15.46 5.47c0.63-0.17 1.52 0.14 1.89 0.57 0.38 0.43 0.56 0.84 0.6 1.37l0.73 1.13c0.09 0.1 0.08 0.26-0.02 0.34l-0.48 0.28c-0.12 0.05-0.22 0.07-0.36 0.05l-2.03-0.67z"></path></g><g id="SvgjsG7189"><path d="M10.76-0.56s-3.07 3.4 0.03 5.97S13.82 3.02 10.76-0.56m-7.56 13.51a2.32 2.32 0 0 1-2.04-0.66c-0.45-0.45-0.68-1.11-0.68-1.7 0.06-1.28 0.75-3.56 0.75-3.56C1.69 5.68 2.15 4.75 2.85 4.04c1.5-1.5 4.02-1.59 5.53-0.09 0.74 0.74 1.11 1.71 1.13 2.69a3.83 3.83 0 0 1 2.68 1.12c1.51 1.51 1.42 4.02-0.09 5.53-0.7 0.7-1.64 1.17-2.98 1.62 0 0-2.28 0.7-3.56 0.75-0.6 0-1.25-0.23-1.71-0.68a2.32 2.32 0 0 1-0.65-2.03" fill-rule="evenodd"></path></g><g id="SvgjsG7191"><path d="M7.15 7.22l-0.21 1.1 0.83 0.84 1.05-0.28 0.3-1.11-0.84-0.83-1.13 0.28zM2.18 12.87L3.67 11.38l-1.3-0.37-0.18-0.66L2.71 9.82l1.95 0.53L5.64 9.37l-1.48-0.32 1.04-1.04-1.35-0.36-1.41 1.41-0.76-0.18-0.14-0.66L2.49 7.27 0.45 6.71 0.13 5.91 0.73 5.32l2.11 0.62-0.42-1.29 0.54-0.54 0.75 0.22 0.51 1.95 1.34 0.36 0-0.04-0.38-1.37 1.38 0.32-0.36-1.34L4.25 3.7l-0.23-0.69 0.54-0.54 1.3 0.36L5.25 0.79l0.6-0.6 0.77 0.25 0.55 2.06 0.97-0.96 0.65 0.13 0.21 0.76-1.44 1.43 0.37 1.38 1.02-1.02 0.42 1.42 0.98-0.98L9.82 2.71l0.52-0.52 0.67 0.18 0.37 1.3L12.87 2.18 13.66 2.35l0.17 0.79-1.49 1.49 1.34 0.39 0.15 0.72-0.47 0.47L11.35 5.66l-0.98 0.98 1.41 0.34-1.07 1.07 1.4 0.41 1.54-1.54 0.63 0.23 0.26 0.66-0.98 0.99 2.07 0.62 0.18 0.75-0.56 0.56-2.06-0.57 0.36 1.28-0.53 0.53L12.36 11.78l-0.51-2-1.43-0.32 0.32 1.37-1.37-0.37 0.43 1.37L11.76 12.38l0.12 0.69-0.51 0.51L10.14 13.24l0.51 2-0.59 0.59-0.77-0.29-0.54-1.94-0.93 0.93-0.69-0.2-0.19-0.68L8.36 12.24l-0.4-1.44-0.98 0.98L6.64 10.37l-0.98 0.98L6.19 13.3l-0.56 0.55-0.64-0.21-0.36-1.3-1.49 1.49L2.35 13.66l-0.17-0.79z"></path></g><g id="SvgjsG7185"><path d="M0.65 4.03a3.58 3.58 0 1 0 5.07 5.07 3.58 3.58 0 1 0-5.07-5.07"></path><path d="M6.6 9.39a4 4 0 1 0 5.66 5.66 4 4 0 1 0-5.66-5.66"></path><path d="M4.82 3.62a5.05 5.05 0 1 0 7.14 7.15 5.05 5.05 0 1 0-7.14-7.15"></path><path d="M4.89 4.87L11.19 11.17l-4.23 4.24L0.65 9.1z"></path></g><g id="SvgjsG7183"><path d="M12.21 2.15c0.84-0.84 2.1 0.42 1.24 1.28l-3.5 3.5L11.9 14.79l-1.29 1.29L7.33 9.6 4.71 12.22l0.24 2.01L3.93 15.25 2.73 12.97 0.45 11.76l1.02-1.02 2 0.24L6.09 8.36-0.4 5.08 0.9 3.79l7.78 1.88L12.21 2.15z"></path></g><g id="SvgjsG7193"><use xlink:href="#SvgjsG7183" transform="translate(0, 0) scale(1.5)" fill="rgba(233, 225, 214, 1)"></use><use xlink:href="#SvgjsG7184" transform="translate(0, 34.5) scale(1.5)" fill="rgba(233, 225, 214, 1)"></use><use xlink:href="#SvgjsG7185" transform="translate(0, 69) scale(1.5)" fill="rgba(233, 225, 214, 1)"></use><use xlink:href="#SvgjsG7186" transform="translate(0, 103.5) scale(1.5)" fill="rgba(233, 225, 214, 1)"></use><use xlink:href="#SvgjsG7183" transform="translate(0, 138) scale(1.5)" fill="rgba(233, 225, 214, 1)"></use><use xlink:href="#SvgjsG7187" transform="translate(0, 172.5) scale(1.5)" fill="rgba(233, 225, 214, 1)"></use><use xlink:href="#SvgjsG7188" transform="translate(0, 207) scale(1.5)" fill="rgba(233, 225, 214, 1)"></use><use xlink:href="#SvgjsG7187" transform="translate(0, 241.5) scale(1.5)" fill="rgba(233, 225, 214, 1)"></use><use xlink:href="#SvgjsG7183" transform="translate(0, 276) scale(1.5)" fill="rgba(233, 225, 214, 1)"></use><use xlink:href="#SvgjsG7183" transform="translate(0, 310.5) scale(1.5)" fill="rgba(233, 225, 214, 1)"></use><use xlink:href="#SvgjsG7189" transform="translate(34.5, 0) scale(1.5)" fill="rgba(233, 225, 214, 1)"></use><use xlink:href="#SvgjsG7183" transform="translate(34.5, 34.5) scale(1.5)" fill="rgba(233, 225, 214, 1)"></use><use xlink:href="#SvgjsG7190" transform="translate(34.5, 69) scale(1.5)" fill="rgba(233, 225, 214, 1)"></use><use xlink:href="#SvgjsG7191" transform="translate(34.5, 103.5) scale(1.5)" fill="rgba(233, 225, 214, 1)"></use><use xlink:href="#SvgjsG7186" transform="translate(34.5, 138) scale(1.5)" fill="rgba(233, 225, 214, 1)"></use><use xlink:href="#SvgjsG7184" transform="translate(34.5, 172.5) scale(1.5)" fill="rgba(233, 225, 214, 1)"></use><use xlink:href="#SvgjsG7187" transform="translate(34.5, 207) scale(1.5)" fill="rgba(233, 225, 214, 1)"></use><use xlink:href="#SvgjsG7185" transform="translate(34.5, 241.5) scale(1.5)" fill="rgba(233, 225, 214, 1)"></use><use xlink:href="#SvgjsG7187" transform="translate(34.5, 276) scale(1.5)" fill="rgba(233, 225, 214, 1)"></use><use xlink:href="#SvgjsG7191" transform="translate(34.5, 310.5) scale(1.5)" fill="rgba(233, 225, 214, 1)"></use><use xlink:href="#SvgjsG7188" transform="translate(69, 0) scale(1.5)" fill="rgba(233, 225, 214, 1)"></use><use xlink:href="#SvgjsG7191" transform="translate(69, 34.5) scale(1.5)" fill="rgba(233, 225, 214, 1)"></use><use xlink:href="#SvgjsG7186" transform="translate(69, 69) scale(1.5)" fill="rgba(233, 225, 214, 1)"></use><use xlink:href="#SvgjsG7188" transform="translate(69, 103.5) scale(1.5)" fill="rgba(233, 225, 214, 1)"></use><use xlink:href="#SvgjsG7186" transform="translate(69, 138) scale(1.5)" fill="rgba(233, 225, 214, 1)"></use><use xlink:href="#SvgjsG7185" transform="translate(69, 172.5) scale(1.5)" fill="rgba(233, 225, 214, 1)"></use><use xlink:href="#SvgjsG7191" transform="translate(69, 207) scale(1.5)" fill="rgba(233, 225, 214, 1)"></use><use xlink:href="#SvgjsG7191" transform="translate(69, 241.5) scale(1.5)" fill="rgba(233, 225, 214, 1)"></use><use xlink:href="#SvgjsG7188" transform="translate(69, 276) scale(1.5)" fill="rgba(233, 225, 214, 1)"></use><use xlink:href="#SvgjsG7189" transform="translate(69, 310.5) scale(1.5)" fill="rgba(233, 225, 214, 1)"></use><use xlink:href="#SvgjsG7190" transform="translate(103.5, 0) scale(1.5)" fill="rgba(233, 225, 214, 1)"></use><use xlink:href="#SvgjsG7191" transform="translate(103.5, 34.5) scale(1.5)" fill="rgba(233, 225, 214, 1)"></use><use xlink:href="#SvgjsG7187" transform="translate(103.5, 69) scale(1.5)" fill="rgba(233, 225, 214, 1)"></use><use xlink:href="#SvgjsG7192" transform="translate(103.5, 103.5) scale(1.5)" fill="rgba(233, 225, 214, 1)"></use><use xlink:href="#SvgjsG7184" transform="translate(103.5, 138) scale(1.5)" fill="rgba(233, 225, 214, 1)"></use><use xlink:href="#SvgjsG7186" transform="translate(103.5, 172.5) scale(1.5)" fill="rgba(233, 225, 214, 1)"></use><use xlink:href="#SvgjsG7186" transform="translate(103.5, 207) scale(1.5)" fill="rgba(233, 225, 214, 1)"></use><use xlink:href="#SvgjsG7191" transform="translate(103.5, 241.5) scale(1.5)" fill="rgba(233, 225, 214, 1)"></use><use xlink:href="#SvgjsG7191" transform="translate(103.5, 276) scale(1.5)" fill="rgba(233, 225, 214, 1)"></use><use xlink:href="#SvgjsG7190" transform="translate(103.5, 310.5) scale(1.5)" fill="rgba(233, 225, 214, 1)"></use><use xlink:href="#SvgjsG7192" transform="translate(138, 0) scale(1.5)" fill="rgba(233, 225, 214, 1)"></use><use xlink:href="#SvgjsG7185" transform="translate(138, 34.5) scale(1.5)" fill="rgba(233, 225, 214, 1)"></use><use xlink:href="#SvgjsG7189" transform="translate(138, 69) scale(1.5)" fill="rgba(233, 225, 214, 1)"></use><use xlink:href="#SvgjsG7190" transform="translate(138, 103.5) scale(1.5)" fill="rgba(233, 225, 214, 1)"></use><use xlink:href="#SvgjsG7191" transform="translate(138, 138) scale(1.5)" fill="rgba(233, 225, 214, 1)"></use><use xlink:href="#SvgjsG7184" transform="translate(138, 172.5) scale(1.5)" fill="rgba(233, 225, 214, 1)"></use><use xlink:href="#SvgjsG7190" transform="translate(138, 207) scale(1.5)" fill="rgba(233, 225, 214, 1)"></use><use xlink:href="#SvgjsG7188" transform="translate(138, 241.5) scale(1.5)" fill="rgba(233, 225, 214, 1)"></use><use xlink:href="#SvgjsG7183" transform="translate(138, 276) scale(1.5)" fill="rgba(233, 225, 214, 1)"></use><use xlink:href="#SvgjsG7189" transform="translate(138, 310.5) scale(1.5)" fill="rgba(233, 225, 214, 1)"></use><use xlink:href="#SvgjsG7189" transform="translate(172.5, 0) scale(1.5)" fill="rgba(233, 225, 214, 1)"></use><use xlink:href="#SvgjsG7185" transform="translate(172.5, 34.5) scale(1.5)" fill="rgba(233, 225, 214, 1)"></use><use xlink:href="#SvgjsG7188" transform="translate(172.5, 69) scale(1.5)" fill="rgba(233, 225, 214, 1)"></use><use xlink:href="#SvgjsG7188" transform="translate(172.5, 103.5) scale(1.5)" fill="rgba(233, 225, 214, 1)"></use><use xlink:href="#SvgjsG7186" transform="translate(172.5, 138) scale(1.5)" fill="rgba(233, 225, 214, 1)"></use><use xlink:href="#SvgjsG7183" transform="translate(172.5, 172.5) scale(1.5)" fill="rgba(233, 225, 214, 1)"></use><use xlink:href="#SvgjsG7188" transform="translate(172.5, 207) scale(1.5)" fill="rgba(233, 225, 214, 1)"></use><use xlink:href="#SvgjsG7183" transform="translate(172.5, 241.5) scale(1.5)" fill="rgba(233, 225, 214, 1)"></use><use xlink:href="#SvgjsG7185" transform="translate(172.5, 276) scale(1.5)" fill="rgba(233, 225, 214, 1)"></use><use xlink:href="#SvgjsG7185" transform="translate(172.5, 310.5) scale(1.5)" fill="rgba(233, 225, 214, 1)"></use><use xlink:href="#SvgjsG7190" transform="translate(207, 0) scale(1.5)" fill="rgba(233, 225, 214, 1)"></use><use xlink:href="#SvgjsG7183" transform="translate(207, 34.5) scale(1.5)" fill="rgba(233, 225, 214, 1)"></use><use xlink:href="#SvgjsG7187" transform="translate(207, 69) scale(1.5)" fill="rgba(233, 225, 214, 1)"></use><use xlink:href="#SvgjsG7189" transform="translate(207, 103.5) scale(1.5)" fill="rgba(233, 225, 214, 1)"></use><use xlink:href="#SvgjsG7188" transform="translate(207, 138) scale(1.5)" fill="rgba(233, 225, 214, 1)"></use><use xlink:href="#SvgjsG7186" transform="translate(207, 172.5) scale(1.5)" fill="rgba(233, 225, 214, 1)"></use><use xlink:href="#SvgjsG7191" transform="translate(207, 207) scale(1.5)" fill="rgba(233, 225, 214, 1)"></use><use xlink:href="#SvgjsG7185" transform="translate(207, 241.5) scale(1.5)" fill="rgba(233, 225, 214, 1)"></use><use xlink:href="#SvgjsG7187" transform="translate(207, 276) scale(1.5)" fill="rgba(233, 225, 214, 1)"></use><use xlink:href="#SvgjsG7187" transform="translate(207, 310.5) scale(1.5)" fill="rgba(233, 225, 214, 1)"></use><use xlink:href="#SvgjsG7185" transform="translate(241.5, 0) scale(1.5)" fill="rgba(233, 225, 214, 1)"></use><use xlink:href="#SvgjsG7186" transform="translate(241.5, 34.5) scale(1.5)" fill="rgba(233, 225, 214, 1)"></use><use xlink:href="#SvgjsG7188" transform="translate(241.5, 69) scale(1.5)" fill="rgba(233, 225, 214, 1)"></use><use xlink:href="#SvgjsG7186" transform="translate(241.5, 103.5) scale(1.5)" fill="rgba(233, 225, 214, 1)"></use><use xlink:href="#SvgjsG7186" transform="translate(241.5, 138) scale(1.5)" fill="rgba(233, 225, 214, 1)"></use><use xlink:href="#SvgjsG7189" transform="translate(241.5, 172.5) scale(1.5)" fill="rgba(233, 225, 214, 1)"></use><use xlink:href="#SvgjsG7184" transform="translate(241.5, 207) scale(1.5)" fill="rgba(233, 225, 214, 1)"></use><use xlink:href="#SvgjsG7192" transform="translate(241.5, 241.5) scale(1.5)" fill="rgba(233, 225, 214, 1)"></use><use xlink:href="#SvgjsG7185" transform="translate(241.5, 276) scale(1.5)" fill="rgba(233, 225, 214, 1)"></use><use xlink:href="#SvgjsG7184" transform="translate(241.5, 310.5) scale(1.5)" fill="rgba(233, 225, 214, 1)"></use><use xlink:href="#SvgjsG7191" transform="translate(276, 0) scale(1.5)" fill="rgba(233, 225, 214, 1)"></use><use xlink:href="#SvgjsG7192" transform="translate(276, 34.5) scale(1.5)" fill="rgba(233, 225, 214, 1)"></use><use xlink:href="#SvgjsG7186" transform="translate(276, 69) scale(1.5)" fill="rgba(233, 225, 214, 1)"></use><use xlink:href="#SvgjsG7191" transform="translate(276, 103.5) scale(1.5)" fill="rgba(233, 225, 214, 1)"></use><use xlink:href="#SvgjsG7185" transform="translate(276, 138) scale(1.5)" fill="rgba(233, 225, 214, 1)"></use><use xlink:href="#SvgjsG7189" transform="translate(276, 172.5) scale(1.5)" fill="rgba(233, 225, 214, 1)"></use><use xlink:href="#SvgjsG7187" transform="translate(276, 207) scale(1.5)" fill="rgba(233, 225, 214, 1)"></use><use xlink:href="#SvgjsG7191" transform="translate(276, 241.5) scale(1.5)" fill="rgba(233, 225, 214, 1)"></use><use xlink:href="#SvgjsG7190" transform="translate(276, 276) scale(1.5)" fill="rgba(233, 225, 214, 1)"></use><use xlink:href="#SvgjsG7188" transform="translate(276, 310.5) scale(1.5)" fill="rgba(233, 225, 214, 1)"></use><use xlink:href="#SvgjsG7187" transform="translate(310.5, 0) scale(1.5)" fill="rgba(233, 225, 214, 1)"></use><use xlink:href="#SvgjsG7184" transform="translate(310.5, 34.5) scale(1.5)" fill="rgba(233, 225, 214, 1)"></use><use xlink:href="#SvgjsG7189" transform="translate(310.5, 69) scale(1.5)" fill="rgba(233, 225, 214, 1)"></use><use xlink:href="#SvgjsG7184" transform="translate(310.5, 103.5) scale(1.5)" fill="rgba(233, 225, 214, 1)"></use><use xlink:href="#SvgjsG7184" transform="translate(310.5, 138) scale(1.5)" fill="rgba(233, 225, 214, 1)"></use><use xlink:href="#SvgjsG7191" transform="translate(310.5, 172.5) scale(1.5)" fill="rgba(233, 225, 214, 1)"></use><use xlink:href="#SvgjsG7183" transform="translate(310.5, 207) scale(1.5)" fill="rgba(233, 225, 214, 1)"></use><use xlink:href="#SvgjsG7190" transform="translate(310.5, 241.5) scale(1.5)" fill="rgba(233, 225, 214, 1)"></use><use xlink:href="#SvgjsG7188" transform="translate(310.5, 276) scale(1.5)" fill="rgba(233, 225, 214, 1)"></use><use xlink:href="#SvgjsG7186" transform="translate(310.5, 310.5) scale(1.5)" fill="rgba(233, 225, 214, 1)"></use></g></defs></svg>